<?xml version="1.0" standalone="no"?>
<!DOCTYPE svg PUBLIC "-//W3C//DTD SVG 20010904//EN"
 "http://www.w3.org/TR/2001/REC-SVG-20010904/DTD/svg10.dtd">
<svg version="1.0" xmlns="http://www.w3.org/2000/svg"
 width="400.000000pt" height="400.000000pt" viewBox="0 0 400.000000 400.000000"
 preserveAspectRatio="xMidYMid meet">
<metadata>
Created by potrace 1.16, written by Peter Selinger 2001-2019
</metadata>
<g transform="translate(0.000000,400.000000) scale(0.163934,-0.193237)"
fill="#000000" stroke="none">
<path d="M557 1836 c-20 -50 7 -162 47 -195 13 -11 20 -11 41 3 14 9 25 23 25
32 0 22 -44 104 -77 143 -25 30 -30 32 -36 17z"/>
<path d="M103 1575 c-16 -34 -16 -36 4 -63 28 -38 134 -121 156 -121 39 -2 28
44 -31 126 -12 18 -43 46 -68 62 l-44 31 -17 -35z"/>
<path d="M900 1521 c-180 -49 -248 -83 -420 -212 -245 -183 -326 -282 -284
-347 17 -27 233 -244 293 -294 119 -100 245 -169 361 -198 229 -58 397 -57
560 5 87 32 105 41 130 56 14 9 76 48 137 86 62 39 134 88 160 109 82 67 242
238 242 259 1 11 -35 63 -79 115 -44 52 -97 116 -118 141 -72 90 -275 203
-480 270 -87 28 -112 31 -247 35 -140 3 -157 2 -255 -25z m832 -248 c31 -21
111 -87 177 -147 90 -81 121 -115 121 -132 0 -13 -4 -24 -9 -24 -4 0 -30 -21
-57 -46 -113 -106 -232 -196 -357 -273 -73 -44 -84 -41 -37 13 42 47 98 174
116 259 32 151 -15 305 -130 426 l-41 44 80 -42 c44 -22 106 -58 137 -78z
m-1062 71 c0 -3 -17 -31 -38 -62 -64 -97 -96 -206 -86 -292 11 -101 47 -232
69 -250 8 -7 15 -19 15 -27 0 -8 23 -37 52 -64 29 -27 48 -49 42 -49 -22 0
-235 161 -329 249 -39 36 -93 84 -119 106 l-49 41 57 54 c31 29 67 60 79 69
12 8 62 49 110 90 118 101 197 156 197 135z"/>
<path d="M1267 283 c-13 -22 -17 -92 -7 -118 23 -62 91 -100 106 -61 8 22 -13
87 -46 139 -28 45 -43 56 -53 40z"/>
</g>
</svg>
