<?xml version="1.0" standalone="no"?>
<!DOCTYPE svg PUBLIC "-//W3C//DTD SVG 20010904//EN"
 "http://www.w3.org/TR/2001/REC-SVG-20010904/DTD/svg10.dtd">
<svg version="1.0" xmlns="http://www.w3.org/2000/svg"
 width="400.000000pt" height="400.000000pt" viewBox="0 0 400.000000 400.000000"
 preserveAspectRatio="xMidYMid meet">
<metadata>
Created by potrace 1.16, written by Peter Selinger 2001-2019
</metadata>
<g transform="translate(0.000000,400.000000) scale(0.177778,-0.177778)"
fill="#000000" stroke="none">
<path d="M570 1790 c0 -5 12 -10 26 -10 34 0 26 -23 -11 -30 -24 -4 -31 -14
-46 -57 -10 -31 -13 -53 -8 -53 15 0 0 -42 -21 -60 -20 -17 -53 -110 -39 -110
16 0 10 -29 -10 -39 -10 -6 -24 -31 -31 -56 -7 -25 -21 -50 -31 -56 -20 -10
-26 -39 -10 -39 6 0 4 -15 -4 -34 -10 -23 -13 -50 -9 -80 5 -31 3 -46 -5 -46
-6 0 -11 -7 -11 -15 0 -12 25 -15 143 -17 l142 -3 3 -27 c2 -16 -1 -28 -7 -28
-14 0 -14 -47 -1 -55 6 -3 10 -17 10 -31 0 -23 3 -24 60 -24 l60 0 0 30 c0 17
-4 30 -10 30 -5 0 -10 11 -10 25 0 14 5 25 10 25 6 0 10 14 10 30 0 28 3 30
35 30 28 0 35 4 35 20 0 11 5 20 10 20 17 0 11 42 -7 56 -10 7 -30 14 -45 14
-26 0 -28 3 -28 40 0 22 -4 40 -10 40 -5 0 -10 9 -10 20 0 11 5 20 10 20 6 0
10 25 10 55 0 30 5 55 10 55 6 0 10 7 10 15 0 12 -13 15 -60 15 -47 0 -60 -3
-60 -15 0 -8 -4 -15 -10 -15 -5 0 -10 -25 -10 -55 0 -42 -3 -55 -15 -55 -8 0
-15 -9 -15 -20 0 -11 7 -20 15 -20 11 0 15 -11 15 -40 l0 -40 -74 0 -75 0 15
36 c11 26 12 39 4 44 -13 8 -2 40 14 40 7 0 20 25 30 55 11 36 22 55 33 55 11
0 14 6 9 23 -7 28 24 127 40 127 17 0 36 58 21 63 -7 2 -5 20 9 58 16 46 23
54 47 57 34 4 36 22 1 22 -14 0 -23 4 -19 10 4 6 -20 10 -64 10 -41 0 -71 -4
-71 -10z"/>
<path d="M950 1790 c-12 -8 -9 -10 13 -10 39 0 30 -24 -11 -28 -32 -3 -32 -4
-32 -58 0 -51 1 -54 25 -54 21 0 25 -5 25 -30 0 -26 -4 -30 -26 -30 -26 0 -26
0 -24 -72 2 -40 2 -99 1 -130 l-1 -58 -40 0 c-29 0 -40 -4 -40 -15 0 -11 12
-15 50 -15 38 0 50 4 50 15 0 8 7 15 15 15 8 0 15 -9 15 -20 0 -15 -7 -20 -24
-20 l-25 0 3 -166 c1 -151 3 -167 21 -180 14 -11 59 -14 188 -14 l169 0 29 31
c28 30 29 34 23 98 -4 36 -11 68 -15 69 -12 5 -11 59 1 67 6 3 10 26 10 51 0
24 5 44 10 44 6 0 10 9 10 20 0 11 -4 20 -9 20 -6 0 -10 56 -10 127 0 82 -3
129 -10 131 -14 5 -14 62 0 62 6 0 9 22 8 57 -3 57 -2 58 27 64 32 6 23 13
-36 25 -58 11 -373 15 -390 4z m270 -125 c0 -14 -4 -25 -10 -25 -14 0 -13 -57
1 -62 7 -2 11 -47 11 -131 0 -71 4 -127 9 -127 5 0 9 -9 9 -20 0 -11 -4 -20
-10 -20 -5 0 -10 -22 -10 -50 0 -27 -4 -50 -10 -50 -5 0 -10 -11 -10 -25 0
-14 5 -25 10 -25 6 0 10 -22 10 -50 l0 -50 -90 0 -90 0 0 44 c0 25 5 48 10 51
6 3 10 17 10 31 0 13 -4 24 -10 24 -5 0 -10 23 -10 50 0 49 1 50 30 50 23 0
30 4 30 20 0 15 -7 20 -29 20 l-29 0 0 130 0 130 29 0 c26 0 29 4 29 30 0 27
-3 30 -30 30 -25 0 -30 4 -30 25 0 25 1 25 90 25 89 0 90 0 90 -25z"/>
<path d="M1635 1790 c-3 -5 -1 -10 4 -10 6 0 11 -7 11 -15 0 -8 -7 -15 -14
-15 -9 0 -22 -22 -32 -55 -17 -52 -20 -55 -50 -55 -24 0 -33 -5 -38 -22 -9
-35 -8 -38 19 -38 14 0 25 -3 25 -7 0 -14 -34 -120 -51 -158 -25 -55 -33 -95
-21 -95 6 0 8 -9 5 -20 -3 -11 -11 -20 -18 -20 -8 0 -21 -22 -30 -50 -12 -37
-22 -50 -36 -50 -14 0 -19 -7 -19 -25 0 -16 6 -25 15 -25 8 0 15 -9 15 -20 0
-19 7 -20 145 -20 l145 0 0 -85 0 -85 63 0 62 0 0 82 0 83 33 3 c32 3 48 32
17 32 -10 0 -15 10 -15 30 0 20 5 30 15 30 8 0 15 5 15 10 0 6 -16 10 -35 10
-34 0 -35 1 -35 40 0 29 4 40 15 40 20 0 19 36 -1 44 -13 5 -15 19 -12 71 l3
65 -62 0 -63 0 0 -70 c0 -40 4 -70 10 -70 6 0 10 -9 10 -20 0 -11 -4 -20 -10
-20 -5 0 -10 -18 -10 -40 l0 -40 -71 0 c-61 0 -70 2 -65 16 3 9 9 27 12 40 3
13 12 24 19 24 17 0 29 32 15 40 -11 7 5 57 35 111 8 14 12 28 10 31 -3 3 4
30 14 61 l20 57 -29 0 c-28 0 -29 1 -19 30 9 24 17 30 39 30 25 0 30 6 50 59
12 33 29 62 37 65 13 5 13 8 -1 21 -17 17 -131 21 -141 5z"/>
<path d="M355 760 c-3 -5 -3 -24 0 -42 3 -18 2 -54 -3 -80 -5 -26 -7 -79 -4
-118 4 -67 6 -70 30 -70 25 0 25 0 19 73 -7 91 3 124 21 73 7 -20 11 -40 8
-45 -3 -5 1 -14 9 -21 8 -6 19 -27 25 -46 8 -22 18 -34 30 -34 17 0 18 10 19
105 0 58 3 110 6 114 3 5 2 30 -1 55 -6 37 -11 46 -27 46 -17 0 -19 -5 -15
-42 3 -24 3 -65 -1 -93 l-7 -50 -18 59 c-30 99 -70 150 -91 116z"/>
<path d="M562 758 c-13 -17 -19 -237 -7 -285 5 -21 11 -23 75 -23 42 0 72 5
76 12 4 7 7 75 7 151 -1 105 -5 142 -15 148 -21 13 -124 11 -136 -3z m109 -80
c1 -29 1 -90 -1 -165 0 -19 -6 -23 -34 -23 -29 0 -34 4 -40 31 -3 17 -4 35 -1
39 3 5 6 41 7 79 l1 71 34 0 c30 0 33 -3 34 -32z"/>
<path d="M740 750 c0 -14 7 -20 23 -20 20 0 24 -5 24 -32 3 -244 3 -248 29
-248 22 0 24 4 25 48 2 99 -3 155 -14 173 -16 26 2 53 37 57 18 2 26 9 26 23
0 17 -8 19 -75 19 -68 0 -75 -2 -75 -20z"/>
<path d="M996 738 c4 -18 6 -90 5 -160 l-1 -128 25 0 c24 0 25 2 25 70 l0 70
34 0 c25 0 35 5 39 20 4 17 0 20 -28 20 -37 0 -45 12 -45 66 0 33 1 34 43 34
27 0 37 3 29 9 -8 4 -12 12 -10 17 1 5 -26 10 -60 12 l-64 3 8 -33z"/>
<path d="M1167 763 c-4 -3 -7 -37 -7 -74 0 -39 -5 -71 -11 -75 -8 -5 -8 -8 0
-13 6 -4 13 -38 15 -77 l5 -69 67 -3 c47 -2 70 1 75 10 13 20 11 186 -3 208
-10 15 -9 24 1 44 22 40 1 56 -74 56 -34 0 -65 -3 -68 -7z m97 -95 c3 -24 7
-73 10 -110 l5 -68 -34 0 c-33 0 -34 1 -40 48 -8 56 -9 63 -7 125 2 45 3 47
31 47 27 0 30 -3 35 -42z"/>
<path d="M1362 669 c-1 -64 -6 -107 -14 -116 -8 -10 -9 -16 -1 -21 6 -4 13
-23 15 -42 l3 -35 70 0 70 0 2 158 c3 151 2 157 -17 157 -18 0 -20 -7 -20 -79
0 -54 -4 -81 -12 -84 -10 -4 -10 -6 0 -6 8 -1 12 -19 12 -56 l0 -55 -34 0
c-42 0 -47 17 -36 127 10 100 3 153 -20 153 -16 0 -18 -12 -18 -101z"/>
<path d="M1549 738 c-6 -207 -3 -288 9 -288 31 0 42 28 43 107 0 43 3 71 6 63
3 -8 11 -18 16 -22 6 -4 12 -26 13 -50 3 -56 1 -52 23 -76 30 -35 46 -28 48
21 1 23 3 56 4 72 2 17 2 69 1 118 -2 81 -3 87 -23 87 -19 0 -20 -5 -17 -89 2
-69 0 -87 -9 -79 -7 5 -15 20 -19 31 -4 12 -15 32 -25 45 -10 13 -16 29 -13
37 8 21 -14 55 -36 55 -16 0 -20 -7 -21 -32z"/>
<path d="M1751 663 c0 -60 -3 -122 -6 -136 -4 -15 -4 -38 -1 -52 6 -25 9 -26
73 -23 l66 3 13 45 c18 61 18 220 0 245 -10 14 -30 20 -79 23 l-66 4 0 -109z"/>
</g>
</svg>
